<svg width="27" height="27" viewBox="0 0 27 27" fill="none" xmlns="http://www.w3.org/2000/svg">
<g opacity="0.6" clip-path="url(#clip0_1_1364)">
<path d="M13.5 19.125C16.6066 19.125 19.125 16.6066 19.125 13.5C19.125 10.3934 16.6066 7.875 13.5 7.875C10.3934 7.875 7.875 10.3934 7.875 13.5C7.875 16.6066 10.3934 19.125 13.5 19.125Z" stroke="#200786" stroke-width="2.57143" stroke-linecap="round" stroke-linejoin="round"/>
<path d="M12.2143 4.5C12.2143 5.21008 12.7899 5.78571 13.5 5.78571C14.2101 5.78571 14.7857 5.21008 14.7857 4.5H12.2143ZM14.7857 2.25C14.7857 1.53992 14.2101 0.964286 13.5 0.964286C12.7899 0.964286 12.2143 1.53992 12.2143 2.25H14.7857ZM14.7857 22.5C14.7857 21.7899 14.2101 21.2143 13.5 21.2143C12.7899 21.2143 12.2143 21.7899 12.2143 22.5H14.7857ZM12.2143 24.75C12.2143 25.4601 12.7899 26.0357 13.5 26.0357C14.2101 26.0357 14.7857 25.4601 14.7857 24.75H12.2143ZM14.7857 4.5V2.25H12.2143V4.5H14.7857ZM12.2143 22.5V24.75H14.7857V22.5H12.2143Z" fill="#200786"/>
<path d="M6.30685 8.12513C6.80896 8.62723 7.62302 8.62723 8.12513 8.12513C8.62723 7.62302 8.62723 6.80896 8.12513 6.30685L6.30685 8.12513ZM6.53414 4.71586C6.03203 4.21376 5.21797 4.21376 4.71586 4.71586C4.21376 5.21797 4.21376 6.03203 4.71586 6.53414L6.53414 4.71586ZM20.853 19.0348C20.3509 18.5327 19.5369 18.5327 19.0348 19.0348C18.5327 19.5369 18.5327 20.3509 19.0348 20.853L20.853 19.0348ZM20.6258 22.444C21.1279 22.9461 21.9419 22.9461 22.444 22.444C22.9461 21.9419 22.9461 21.1279 22.444 20.6258L20.6258 22.444ZM8.12513 6.30685L6.53414 4.71586L4.71586 6.53414L6.30685 8.12513L8.12513 6.30685ZM19.0348 20.853L20.6258 22.444L22.444 20.6258L20.853 19.0348L19.0348 20.853Z" fill="#200786"/>
<path d="M4.5 14.7857C5.21008 14.7857 5.78571 14.2101 5.78571 13.5C5.78571 12.7899 5.21008 12.2143 4.5 12.2143V14.7857ZM2.25 12.2143C1.53992 12.2143 0.964286 12.7899 0.964286 13.5C0.964286 14.2101 1.53992 14.7857 2.25 14.7857V12.2143ZM22.5 12.2143C21.7899 12.2143 21.2143 12.7899 21.2143 13.5C21.2143 14.2101 21.7899 14.7857 22.5 14.7857V12.2143ZM24.75 14.7857C25.4601 14.7857 26.0357 14.2101 26.0357 13.5C26.0357 12.7899 25.4601 12.2143 24.75 12.2143V14.7857ZM4.5 12.2143H2.25V14.7857H4.5V12.2143ZM22.5 14.7857H24.75V12.2143H22.5V14.7857Z" fill="#200786"/>
<path d="M19.0347 6.30685C18.5326 6.80896 18.5326 7.62302 19.0347 8.12513C19.5368 8.62723 20.3509 8.62723 20.853 8.12513L19.0347 6.30685ZM22.444 6.53414C22.9461 6.03203 22.9461 5.21797 22.444 4.71586C21.9419 4.21376 21.1278 4.21376 20.6257 4.71586L22.444 6.53414ZM8.12507 20.853C8.62717 20.3509 8.62717 19.5369 8.12507 19.0348C7.62296 18.5327 6.80889 18.5327 6.30679 19.0348L8.12507 20.853ZM4.7158 20.6258C4.2137 21.1279 4.2137 21.9419 4.7158 22.444C5.2179 22.9461 6.03197 22.9461 6.53408 22.444L4.7158 20.6258ZM20.853 8.12513L22.444 6.53414L20.6257 4.71586L19.0347 6.30685L20.853 8.12513ZM6.30679 19.0348L4.7158 20.6258L6.53408 22.444L8.12507 20.853L6.30679 19.0348Z" fill="#200786"/>
</g>
<defs>
<clipPath id="clip0_1_1364">
<rect width="27" height="27" fill="white"/>
</clipPath>
</defs>
</svg>
