<svg width="225" height="59" viewBox="0 0 225 59" fill="none" xmlns="http://www.w3.org/2000/svg">
<mask id="mask0_2_617" style="mask-type:alpha" maskUnits="userSpaceOnUse" x="0" y="0" width="225" height="59">
<path opacity="0.6" fill-rule="evenodd" clip-rule="evenodd" d="M0 33.7635L2.10095 34.7511C4.20189 35.7387 7.87855 37.714 12.0804 31.7882C15.7571 25.3686 19.959 10.5541 23.6357 4.1345C27.8375 -2.28511 31.5142 0.183973 35.7161 9.56647C39.3928 18.949 43.5946 35.7387 47.2713 38.7016C51.4732 42.1583 55.1499 31.7882 59.3517 25.3686C63.0284 18.949 67.2303 16.9737 70.907 20.9242C75.1088 25.3686 78.7855 35.7387 82.9874 38.7016C86.6641 42.1583 90.866 37.714 94.5426 40.1831C98.7445 42.1583 102.421 50.5532 106.623 46.1088C110.3 42.1583 114.502 25.3686 118.178 19.9366C122.38 14.5046 126.057 20.9242 130.259 26.3562C133.935 31.7882 138.137 35.7387 141.814 31.7882C146.016 27.3438 149.692 14.5046 153.894 10.5541C157.571 6.10976 161.773 10.5541 165.45 12.5294C169.651 14.5046 173.328 14.5046 177.53 14.5046C181.207 14.5046 185.409 14.5046 189.085 15.9861C193.287 16.9737 196.964 18.949 201.166 20.9242C204.842 22.8995 209.044 25.3686 212.721 27.3438C216.923 29.3191 220.599 31.7882 222.7 32.7758L224.801 33.7635V58.9481H222.7C220.599 58.9481 216.923 58.9481 212.721 58.9481C209.044 58.9481 204.842 58.9481 201.166 58.9481C196.964 58.9481 193.287 58.9481 189.085 58.9481C185.409 58.9481 181.207 58.9481 177.53 58.9481C173.328 58.9481 169.651 58.9481 165.45 58.9481C161.773 58.9481 157.571 58.9481 153.894 58.9481C149.692 58.9481 146.016 58.9481 141.814 58.9481C138.137 58.9481 133.935 58.9481 130.259 58.9481C126.057 58.9481 122.38 58.9481 118.178 58.9481C114.502 58.9481 110.3 58.9481 106.623 58.9481C102.421 58.9481 98.7445 58.9481 94.5426 58.9481C90.866 58.9481 86.6641 58.9481 82.9874 58.9481C78.7855 58.9481 75.1088 58.9481 70.907 58.9481C67.2303 58.9481 63.0284 58.9481 59.3517 58.9481C55.1499 58.9481 51.4732 58.9481 47.2713 58.9481C43.5946 58.9481 39.3928 58.9481 35.7161 58.9481C31.5142 58.9481 27.8375 58.9481 23.6357 58.9481C19.959 58.9481 15.7571 58.9481 12.0804 58.9481C7.87855 58.9481 4.20189 58.9481 2.10095 58.9481H0V33.7635Z" fill="#5CB202"/>
</mask>
<g mask="url(#mask0_2_617)">
<rect x="10" y="-145" width="204" height="204" rx="28" fill="url(#paint0_linear_2_617)"/>
</g>
<defs>
<linearGradient id="paint0_linear_2_617" x1="15.3333" y1="-95.9617" x2="226.404" y2="-76.6637" gradientUnits="userSpaceOnUse">
<stop stop-color="#AE5FBB"/>
<stop offset="1" stop-color="#553DB9"/>
</linearGradient>
</defs>
</svg>
