<svg width="36" height="29" viewBox="0 0 36 29" fill="none" xmlns="http://www.w3.org/2000/svg">
<path d="M11.1082 28.9991C24.4294 28.9991 31.7177 17.9598 31.7177 8.38958C31.7177 8.07924 31.7108 7.762 31.697 7.45166C33.1147 6.42634 34.3383 5.15635 35.31 3.70134C33.9896 4.28882 32.5877 4.67249 31.1521 4.83927C32.6637 3.93323 33.7954 2.50989 34.3376 0.833094C32.9156 1.67581 31.3606 2.27028 29.739 2.59101C28.6465 1.43012 27.2019 0.661472 25.6287 0.403906C24.0555 0.146341 22.4413 0.414204 21.0356 1.16608C19.6299 1.91796 18.511 3.11197 17.8519 4.56352C17.1929 6.01506 17.0304 7.64329 17.3895 9.19647C14.5102 9.05198 11.6934 8.30402 9.12173 7.00107C6.55005 5.69812 4.28089 3.86927 2.46136 1.63309C1.53657 3.22752 1.25359 5.11426 1.66992 6.90984C2.08624 8.70542 3.17064 10.2751 4.70272 11.2999C3.55253 11.2634 2.42753 10.9537 1.42068 10.3965V10.4861C1.41965 12.1594 1.9981 13.7813 3.05772 15.0763C4.11733 16.3713 5.5927 17.2593 7.23304 17.5895C6.16757 17.881 5.04931 17.9235 3.96479 17.7136C4.42766 19.1526 5.32824 20.4112 6.54085 21.3137C7.75345 22.2163 9.21757 22.7177 10.7289 22.7481C8.16313 24.7635 4.99368 25.8567 1.73102 25.8515C1.15241 25.8506 0.574375 25.8151 0 25.7453C3.31452 27.8717 7.17019 29.0011 11.1082 28.9991Z" fill="white"/>
</svg>
